<?xml version="1.0" encoding="UTF-8"?>
<svg width="820px" height="147px" viewBox="0 0 820 147" version="1.1" xmlns="http://www.w3.org/2000/svg" xmlns:xlink="http://www.w3.org/1999/xlink">
    <!-- Generator: Sketch 52.6 (67491) - http://www.bohemiancoding.com/sketch -->
    <title>Group 32</title>
    <desc>Created with Sketch.</desc>
    <defs>
        <polygon id="path-1" points="0.3252 0.037 25.8162 0.037 25.8162 34.5997 0.3252 34.5997"></polygon>
        <polygon id="path-3" points="0.0537 0.037 25.0157 0.037 25.0157 34.5998 0.0537 34.5998"></polygon>
        <polygon id="path-5" points="0.7431 0.037 31.0801 0.037 31.0801 34.5997 0.7431 34.5997"></polygon>
        <polygon id="path-7" points="0 147 819.567 147 819.567 0.037 0 0.037"></polygon>
    </defs>
    <g id="Page-1" stroke="none" stroke-width="1" fill="none" fill-rule="evenodd">
        <g id="Group-32" transform="translate(0.000000, -1.000000)">
            <path d="M201.5856,1.0002 L190.5926,35.5632 L197.8896,35.5632 L200.0496,27.7862 L211.1856,27.7862 L213.3456,35.5632 L220.9306,35.5632 L209.9376,1.0002 L201.5856,1.0002 Z M205.6176,7.9132 L209.4096,21.4502 L201.8246,21.4502 L205.6176,7.9132 Z" id="Fill-1" fill="#231F20"></path>
            <polygon id="Fill-2" fill="#231F20" points="255.2013 1.0002 255.2013 23.7062 242.2893 1.0002 235.0883 1.0002 235.0883 35.5632 241.6163 35.5632 241.6163 12.0892 255.0093 35.5632 261.7303 35.5632 261.7303 1.0002"></polygon>
            <g id="Group-31" transform="translate(0.000000, 0.963000)">
                <path d="M324.8491,27.8794 C324.8491,32.2484 322.4971,34.6004 318.1281,34.6004 L306.4151,34.6004 C302.0471,34.6004 299.6951,32.2484 299.6951,27.8794 L299.6951,0.0374 L306.6081,0.0374 L306.6081,27.3034 C306.6081,27.9274 306.9441,28.2634 307.5681,28.2634 L316.9761,28.2634 C317.6001,28.2634 317.9361,27.9274 317.9361,27.3034 L317.9361,0.0374 L324.8491,0.0374 L324.8491,27.8794 Z" id="Fill-3" fill="#231F20"></path>
                <polygon id="Fill-5" fill="#231F20" points="368.3374 0.0371 368.3374 34.6001 361.6164 34.6001 348.2234 11.1261 348.2234 34.6001 341.6954 34.6001 341.6954 0.0371 348.8964 0.0371 361.8094 22.7431 361.8094 0.0371"></polygon>
                <path d="M391.4238,34.6001 C387.0558,34.6001 384.7028,32.2481 384.7028,27.8791 L384.7028,6.7581 C384.7028,2.3891 387.0558,0.0371 391.4238,0.0371 L402.5608,0.0371 C406.9288,0.0371 409.2808,2.3891 409.2808,6.7581 L409.2808,12.2301 L402.3688,12.2301 L402.3688,7.3331 C402.3688,6.7091 402.0328,6.3731 401.4088,6.3731 L392.5758,6.3731 C391.9518,6.3731 391.6158,6.7091 391.6158,7.3331 L391.6158,27.3031 C391.6158,27.9281 391.9518,28.2641 392.5758,28.2641 L401.4088,28.2641 C402.0328,28.2641 402.3688,27.9281 402.3688,27.3031 L402.3688,22.4071 L409.2808,22.4071 L409.2808,27.8791 C409.2808,32.2481 406.9288,34.6001 402.5608,34.6001 L391.4238,34.6001 Z" id="Fill-7" fill="#231F20"></path>
                <polygon id="Fill-9" fill="#231F20" points="447.6323 0.0371 447.6323 6.3731 431.9353 6.3731 431.9353 13.8141 444.6553 13.8141 444.6553 20.0551 431.9353 20.0551 431.9353 28.2641 447.6323 28.2641 447.6323 34.6001 425.0223 34.6001 425.0223 0.0371"></polygon>
                <g id="Group-13" transform="translate(463.000000, 0.000000)">
                    <mask id="mask-2" fill="white">
                        <use xlink:href="#path-1"></use>
                    </mask>
                    <g id="Clip-12"></g>
                    <path d="M16.8872,15.6387 C17.5112,15.6387 17.8472,15.3027 17.8472,14.6787 L17.8472,7.2377 C17.8472,6.6137 17.5112,6.2777 16.8872,6.2777 L7.2392,6.2777 L7.2392,15.6387 L16.8872,15.6387 Z M18.3752,34.5997 L12.8072,21.7837 L7.2392,21.7837 L7.2392,34.5997 L0.3252,34.5997 L0.3252,0.0367 L18.0392,0.0367 C22.4082,0.0367 24.7602,2.3887 24.7602,6.7577 L24.7602,15.0627 C24.7602,18.6627 23.1282,20.9187 20.1042,21.5907 L25.8162,34.5997 L18.3752,34.5997 Z" id="Fill-11" fill="#231F20" mask="url(#mask-2)"></path>
                </g>
                <g id="Group-16" transform="translate(501.000000, 0.000000)">
                    <mask id="mask-4" fill="white">
                        <use xlink:href="#path-3"></use>
                    </mask>
                    <g id="Clip-15"></g>
                    <polygon id="Fill-14" fill="#231F20" mask="url(#mask-4)" points="15.9917 6.2778 15.9917 34.5998 9.0787 34.5998 9.0787 6.2778 0.0537 6.2778 0.0537 0.0368 25.0157 0.0368 25.0157 6.2778"></polygon>
                </g>
                <g id="Group-19" transform="translate(533.000000, 0.000000)">
                    <mask id="mask-6" fill="white">
                        <use xlink:href="#path-5"></use>
                    </mask>
                    <g id="Clip-18"></g>
                    <path d="M15.7671,6.9497 L11.9751,20.4867 L19.5601,20.4867 L15.7671,6.9497 Z M10.1991,26.8237 L8.0381,34.5997 L0.7431,34.5997 L11.7351,0.0367 L20.0871,0.0367 L31.0801,34.5997 L23.4961,34.5997 L21.3361,26.8237 L10.1991,26.8237 Z" id="Fill-17" fill="#231F20" mask="url(#mask-6)"></path>
                </g>
                <mask id="mask-8" fill="white">
                    <use xlink:href="#path-7"></use>
                </mask>
                <g id="Clip-21"></g>
                <polygon id="Fill-20" fill="#231F20" mask="url(#mask-8)" points="578.238 34.6 585.151 34.6 585.151 0.037 578.238 0.037"></polygon>
                <polygon id="Fill-22" fill="#231F20" mask="url(#mask-8)" points="628.9751 0.0371 628.9751 34.6001 622.2541 34.6001 608.8621 11.1261 608.8621 34.6001 602.3321 34.6001 602.3321 0.0371 609.5341 0.0371 622.4471 22.7431 622.4471 0.0371"></polygon>
                <path d="M48.3501,131.4951 C48.3501,141.5941 42.9441,147.0001 32.8461,147.0001 L15.5051,147.0001 C5.4061,147.0001 0.0001,141.5941 0.0001,131.4951 L0.0001,73.5561 L2.4481,73.5561 L2.4481,131.6991 C2.4481,140.1651 7.0381,144.7561 15.5051,144.7561 L32.8461,144.7561 C41.3121,144.7561 45.9021,140.1651 45.9021,131.6991 L45.9021,73.5561 L48.3501,73.5561 L48.3501,131.4951 Z" id="Fill-23" fill="#231F20" mask="url(#mask-8)"></path>
                <polygon id="Fill-24" fill="#231F20" mask="url(#mask-8)" points="169.8311 73.5562 169.8311 147.0002 167.6891 147.0002 122.2971 78.2482 122.2971 147.0002 119.8491 147.0002 119.8491 73.5562 121.9911 73.5562 167.3831 142.3072 167.3831 73.5562"></polygon>
                <polygon id="Fill-25" fill="#231F20" mask="url(#mask-8)" points="242.452 147 244.9 147 244.9 73.556 242.452 73.556"></polygon>
                <polygon id="Fill-26" fill="#231F20" mask="url(#mask-8)" points="339.4546 147 336.3946 147 310.5866 73.556 313.0356 73.556 337.9246 144.348 362.8136 73.556 365.2616 73.556"></polygon>
                <polygon id="Fill-27" fill="#231F20" mask="url(#mask-8)" points="474.2993 73.5562 474.2993 75.8002 433.3953 75.8002 433.3953 108.2382 468.5863 108.2382 468.5863 110.4822 433.3953 110.4822 433.3953 144.7562 474.2993 144.7562 474.2993 147.0002 430.9473 147.0002 430.9473 73.5562"></polygon>
                <path d="M573.8501,112.0127 C582.3171,112.0127 586.9071,107.4217 586.9071,98.9557 L586.9071,88.8567 C586.9071,80.3907 582.3171,75.8007 573.8501,75.8007 L544.5751,75.8007 L544.5751,112.0127 L573.8501,112.0127 Z M588.9481,146.9997 L571.3011,114.2567 L544.5751,114.2567 L544.5751,146.9997 L542.1271,146.9997 L542.1271,73.5557 L573.8501,73.5557 C583.9501,73.5557 589.3561,78.9627 589.3561,89.0617 L589.3561,98.7507 C589.3561,108.8507 583.9501,114.2567 573.8501,114.2567 L591.6001,146.9997 L588.9481,146.9997 Z" id="Fill-28" fill="#231F20" mask="url(#mask-8)"></path>
                <path d="M702.3696,88.8564 C702.3696,80.3904 697.7796,75.8004 689.3126,75.8004 L675.8486,75.8004 C667.3816,75.8004 662.7916,80.3904 662.7916,88.8564 L662.7916,94.0594 C662.7916,99.8744 664.4246,102.8324 672.5846,105.1774 L693.3926,111.1964 C703.0846,113.9504 705.6336,117.5204 705.6336,124.7624 L705.6336,131.4954 C705.6336,141.5934 700.2266,147.0004 690.1296,147.0004 L675.4396,147.0004 C665.3426,147.0004 659.9356,141.5934 659.9356,131.4954 L659.9356,126.7014 L662.3836,126.7014 L662.3836,131.6994 C662.3836,140.1654 666.9746,144.7554 675.4396,144.7554 L690.1296,144.7554 C698.5966,144.7554 703.1856,140.1654 703.1856,131.6994 L703.1856,124.5594 C703.1856,119.1534 701.4516,115.8884 693.3926,113.5424 L672.5846,107.5244 C662.7916,104.6684 660.3446,101.0974 660.3446,93.8554 L660.3446,89.0614 C660.3446,78.9624 665.7506,73.5564 675.8486,73.5564 L689.3126,73.5564 C699.4126,73.5564 704.8186,78.9624 704.8186,89.0614 L704.8186,92.3254 L702.3696,92.3254 L702.3696,88.8564 Z" id="Fill-29" fill="#231F20" mask="url(#mask-8)"></path>
                <polygon id="Fill-30" fill="#231F20" mask="url(#mask-8)" points="819.5669 73.5562 819.5669 75.8002 778.6629 75.8002 778.6629 108.2382 813.8539 108.2382 813.8539 110.4822 778.6629 110.4822 778.6629 144.7562 819.5669 144.7562 819.5669 147.0002 776.2149 147.0002 776.2149 73.5562"></polygon>
            </g>
        </g>
    </g>
</svg>